<?xml version="1.0" encoding="utf-8"?>
<!-- Generator: Adobe Illustrator 27.8.0, SVG Export Plug-In . SVG Version: 6.00 Build 0)  -->
<svg version="1.1" id="Layer_1" xmlns="http://www.w3.org/2000/svg" xmlns:xlink="http://www.w3.org/1999/xlink" x="0px" y="0px"
	 viewBox="0 0 236.8 235.1" style="enable-background:new 0 0 236.8 235.1;" xml:space="preserve">
<g>
	<path d="M0,26C9.3,16.5,17.4,6.1,29.9,1c16.3-6.7,30.2-4.3,42,8.7c6.2,6.8,7.4,15.4,7.8,24.2c0.5,13.1-4.1,24.5-11.1,35.4
		C61.2,80.7,54,92.2,47.3,103.9c-4.7,8.1-8.9,16.7-10.1,26.2c-0.5,4.1-0.5,8.4,0.2,12.4c1.2,6.2,5.9,8.2,10.9,4.2
		c4.8-3.8,9.1-8.3,13.1-12.9c8.1-9.4,15.9-19,23.7-28.7c11.2-14,24.2-25.8,40.4-33.6c16.4-7.9,33.4-8.7,50.3-1.4
		c8.9,3.8,14.7,10.9,19.5,19.1c5.2,8.9,8.4,18.4,9.5,28.7c0.2,1.7,0.9,2,2.4,2c8.8,0,17.7,0,26.5,0c1,0,2,0,3,0
		c0,10.9,0,21.4,0,32.4c-0.9,0-1.8,0-2.7,0c-8.8,0-17.7,0.1-26.5,0c-2.1,0-2.6,0.7-2.8,2.7c-1.6,15.8-4.5,31.4-12.4,45.4
		c-8,14.3-19.6,24.5-35.1,30c-24,8.5-51-7.2-55.1-32.2c-1.7-10.5,0.8-20.4,5.5-29.7c7.1-13.9,16.5-25.8,29.9-34.2
		c9.8-6.2,20.5-9.9,31.8-11.9c2.2-0.4,2.9-1.2,2.6-3.4c-0.6-4.8-2-9.3-4.6-13.3c-3.1-4.9-8.2-6.2-13.5-6.9c-9.4-1.3-17.5,2.1-24,8.4
		c-9.5,9.2-18.6,18.9-27.5,28.7c-6.5,7.1-12.5,14.7-18.7,22.2c-6.1,7.4-12.8,14.1-21.4,18.6c-20,10.4-39.7,3.6-50.9-13.5
		C3,150,2.1,135.7,5.6,121.1c3.3-13.9,9.7-26.6,16.8-38.8c5-8.6,10.5-17,15.7-25.5c3.2-5.3,6-10.7,8.9-16.2c0.7-1.3,0.9-3,0.9-4.6
		c0-3-2.4-4.7-5.1-3.6c-2.7,1.2-5.4,2.7-7.7,4.6c-4.3,3.4-8.3,7.2-12.6,11C15.2,40.8,7.7,33.5,0,26z M172.2,154.6
		c-7.7,2.1-14.6,4.8-20.5,9.4c-7.8,6.1-13.7,13.5-16.5,23.1c-1.1,3.9-0.7,7.6,2.6,10.6c3.3,3,7.2,3.7,11.1,2c2.9-1.3,5.8-3,8.1-5.2
		C168.1,183.8,170.2,169.5,172.2,154.6z"/>
</g>
</svg>
